<svg width="278" height="278" viewBox="0 0 278 278" fill="none" xmlns="http://www.w3.org/2000/svg">
<mask id="path-1-inside-1_424_1251" fill="white">
<path d="M139 0C158.221 -8.40184e-07 177.233 3.98645 194.836 11.7075C212.438 19.4286 228.247 30.7164 241.266 44.8579C254.284 58.9993 264.227 75.6871 270.469 93.8668C276.71 112.046 279.113 131.323 277.525 150.479C275.938 169.634 270.395 188.252 261.247 205.157C252.099 222.061 239.544 236.885 224.376 248.691C209.207 260.496 191.755 269.028 173.122 273.747C154.489 278.465 135.08 279.268 116.121 276.104L139 139L139 0Z"/>
</mask>
<path d="M139 0C158.221 -8.40184e-07 177.233 3.98645 194.836 11.7075C212.438 19.4286 228.247 30.7164 241.266 44.8579C254.284 58.9993 264.227 75.6871 270.469 93.8668C276.71 112.046 279.113 131.323 277.525 150.479C275.938 169.634 270.395 188.252 261.247 205.157C252.099 222.061 239.544 236.885 224.376 248.691C209.207 260.496 191.755 269.028 173.122 273.747C154.489 278.465 135.08 279.268 116.121 276.104L139 139L139 0Z" stroke="#FF7424" stroke-opacity="0.8" stroke-width="20" mask="url(#path-1-inside-1_424_1251)"/>
<mask id="path-2-inside-2_424_1251" fill="white">
<path d="M116.121 276.104C81.719 270.363 50.732 251.899 29.3095 224.376C7.88692 196.852 -2.40545 162.28 0.474756 127.521C3.35496 92.7625 19.1972 60.3566 44.8579 36.7344C70.5185 13.1121 104.122 -4.15917e-07 139 0L139 139L116.121 276.104Z"/>
</mask>
<path d="M116.121 276.104C81.719 270.363 50.732 251.899 29.3095 224.376C7.88692 196.852 -2.40545 162.28 0.474756 127.521C3.35496 92.7625 19.1972 60.3566 44.8579 36.7344C70.5185 13.1121 104.122 -4.15917e-07 139 0L139 139L116.121 276.104Z" stroke="#21C4FF" stroke-opacity="0.8" stroke-width="20" mask="url(#path-2-inside-2_424_1251)"/>
<path d="M206.193 144.77H206.877C206.603 145.499 205.737 145.909 204.279 146.001H181.447C179.533 145.818 178.485 144.77 178.302 142.856V124.262L181.447 124.809V129.868H201.134V119.204H177.619V118.657H201.134L204.279 117.973V131.098L201.134 130.415H181.447V143.54C181.538 144.633 182.176 145.226 183.361 145.317H204.279C205.373 145.317 206.011 145.135 206.193 144.77ZM241.877 145.317H242.423C242.15 146.046 241.33 146.456 239.963 146.547H232.306C230.392 146.365 229.344 145.363 229.162 143.54V134.79H222.736V135.473C222.554 140.76 218.361 144.679 210.158 147.231V146.547C216.082 143.357 219.227 139.848 219.591 136.02V134.79H210.705V134.243H241.877V134.79H232.306V144.087C232.397 145.271 233.035 145.909 234.22 146.001H239.963C240.965 146.001 241.603 145.773 241.877 145.317ZM241.193 119.204V124.809L238.048 125.493V120.434H214.533V124.809L211.388 125.493V119.204L214.533 119.887H224.65V116.059L227.931 116.743V119.887H238.048L241.193 119.204ZM237.365 127.27H215.216V126.723H237.365V127.27ZM195.802 163.665L198.947 164.348H210.978V163.665V158.743L214.123 158.059V164.348H224.377V165.032H214.123C214.123 167.675 214.806 170.637 216.173 173.919C217.814 171.913 219.272 170.182 220.548 168.723L223.693 169.27C221.505 171.64 219.318 173.919 217.13 176.106C218.862 180.208 221.46 184.355 224.923 188.547V189.231C221.004 185.95 217.814 182.213 215.353 178.02C211.707 181.666 208.153 185.175 204.689 188.547V188.001C205.783 186.633 207.378 184.674 209.474 182.122C211.753 179.296 213.348 177.337 214.259 176.243C212.345 172.324 211.252 168.587 210.978 165.032H198.947V171.868H205.646L208.791 171.184V178.02C208.699 182.942 206.147 185.631 201.134 186.087V185.54C203.869 184.355 205.373 182.258 205.646 179.251V172.415H198.947V175.559C198.856 180.846 196.759 185.403 192.658 189.231V188.547C194.663 184.264 195.711 180.162 195.802 176.243V163.665ZM221.779 163.665H221.095C219.546 162.115 218.088 160.702 216.72 159.426L219.865 158.743C220.503 160.383 221.141 162.024 221.779 163.665Z" fill="#FA842F"/>
<path d="M68.4584 108.236H60.5287C60.8933 108.874 62.0326 110.834 63.9466 114.115C66.043 117.852 67.7292 120.86 69.0052 123.138V123.685C64.4479 117.761 60.4375 112.611 56.974 108.236H54.513V124.916L51.2318 125.599V108.236H48.7709C45.3073 112.611 41.2969 117.761 36.7396 123.685V123.138C37.4688 121.771 38.5625 119.857 40.0209 117.396C43.0287 111.927 44.7604 108.874 45.2162 108.236H37.2865V107.552H51.2318V100.033H39.2005V99.486H51.2318V94.4274L54.513 95.111V99.486H66.5443V100.033H54.513V107.552H68.4584V108.236ZM103.458 123.685H104.005C103.732 124.414 102.911 124.825 101.544 124.916H93.888C91.974 124.733 90.9258 123.731 90.7435 121.908V113.158H84.3177V113.841C84.1354 119.128 79.9427 123.047 71.7396 125.599V124.916C77.6641 121.726 80.8086 118.216 81.1732 114.388V113.158H72.2865V112.611H103.458V113.158H93.888V122.455C93.9792 123.64 94.6172 124.278 95.8021 124.369H101.544C102.547 124.369 103.185 124.141 103.458 123.685ZM102.775 97.5719V103.177L99.6302 103.861V98.8024H76.1146V103.177L72.9701 103.861V97.5719L76.1146 98.2555H86.2318V94.4274L89.513 95.111V98.2555H99.6302L102.775 97.5719ZM98.9466 105.638H76.7982V105.091H98.9466V105.638ZM57.3841 142.033L60.5287 142.716H72.5599V142.033V137.111L75.7045 136.427V142.716H85.9584V143.4H75.7045C75.7045 146.043 76.388 149.005 77.7552 152.287C79.3959 150.282 80.8542 148.55 82.1302 147.091L85.2748 147.638C83.0873 150.008 80.8998 152.287 78.7123 154.474C80.444 158.576 83.0417 162.723 86.5052 166.916V167.599C82.586 164.318 79.3959 160.581 76.9349 156.388C73.2891 160.034 69.7344 163.543 66.2709 166.916V166.369C67.3646 165.002 68.9597 163.042 71.056 160.49C73.3347 157.664 74.9297 155.705 75.8412 154.611C73.9271 150.692 72.8334 146.955 72.5599 143.4H60.5287V150.236H67.2279L70.3724 149.552V156.388C70.2813 161.31 67.7292 163.999 62.7162 164.455V163.908C65.4505 162.723 66.9545 160.627 67.2279 157.619V150.783H60.5287V153.927C60.4375 159.214 58.3412 163.771 54.2396 167.599V166.916C56.2448 162.632 57.293 158.53 57.3841 154.611V142.033ZM83.3607 142.033H82.6771C81.1276 140.483 79.6693 139.071 78.3021 137.795L81.4466 137.111C82.0847 138.752 82.7227 140.392 83.3607 142.033Z" fill="#68C3EA"/>
</svg>
