<svg width="414" height="309" viewBox="0 0 414 309" fill="none" xmlns="http://www.w3.org/2000/svg">
<path fill-rule="evenodd" clip-rule="evenodd" d="M539 123.46L495.833 171.473C452.667 219.485 366.333 315.51 280 308.651C193.667 301.792 107.333 192.05 21 123.46C-65.3333 54.8713 -151.667 27.4357 -238 27.4357C-324.333 27.4357 -410.667 54.8713 -497 68.5892C-583.333 82.307 -669.667 82.307 -712.833 82.307H-756V0H-712.833C-669.667 0 -583.333 0 -497 0C-410.667 0 -324.333 0 -238 0C-151.667 0 -65.3333 0 21 0C107.333 0 193.667 0 280 0C366.333 0 452.667 0 495.833 0H539V123.46Z" fill="#FFEBC5" fill-opacity="0.5"/>
</svg>
