<svg width="414" height="334" viewBox="0 0 414 334" fill="none" xmlns="http://www.w3.org/2000/svg">
<path fill-rule="evenodd" clip-rule="evenodd" d="M596 334L567.542 299.104C539.083 264.208 482.167 194.417 425.25 180.458C368.333 166.5 311.417 208.375 254.5 187.438C197.583 166.5 140.667 82.75 83.75 82.75C26.8333 82.75 -30.0833 166.5 -58.5417 208.375L-87 250.25V-1H-58.5417C-30.0833 -1 26.8333 -1 83.75 -1C140.667 -1 197.583 -1 254.5 -1C311.417 -1 368.333 -1 425.25 -1C482.167 -1 539.083 -1 567.542 -1H596V334Z" fill="#49B6FF" fill-opacity="0.5"/>
</svg>
