<svg width="414" height="261" viewBox="0 0 414 261" fill="none" xmlns="http://www.w3.org/2000/svg">
<path fill-rule="evenodd" clip-rule="evenodd" d="M602.634 0.194214L588.85 16.4563C575.066 32.7184 546.871 65.2425 519.303 81.5046C491.108 97.7666 463.54 97.7666 435.345 97.7666C407.777 97.7666 379.582 97.7666 352.014 81.5046C324.446 65.2425 296.251 32.7184 268.683 57.1115C240.488 81.5046 212.92 162.815 184.725 187.208C157.157 211.601 128.962 179.077 101.394 170.946C73.8261 162.815 45.6314 179.077 18.0632 154.684C-10.1315 130.291 -37.6997 65.2425 -65.8945 40.8494C-93.4626 16.4563 -121.657 32.7184 -135.441 40.8494L-149.226 48.9804V341.698H-135.441C-121.657 341.698 -93.4626 341.698 -65.8945 341.698C-37.6997 341.698 -10.1315 341.698 18.0632 341.698C45.6314 341.698 73.8261 341.698 101.394 341.698C128.962 341.698 157.157 341.698 184.725 341.698C212.92 341.698 240.488 341.698 268.683 341.698C296.251 341.698 324.446 341.698 352.014 341.698C379.582 341.698 407.777 341.698 435.345 341.698C463.54 341.698 491.108 341.698 519.303 341.698C546.871 341.698 575.066 341.698 588.85 341.698H602.634V0.194214Z" fill="#0099FF" fill-opacity="0.3"/>
</svg>
