<svg width="414" height="896" viewBox="0 0 414 896" fill="none" xmlns="http://www.w3.org/2000/svg">
<rect width="414" height="896" fill="white"/>
<path fill-rule="evenodd" clip-rule="evenodd" d="M602.634 635.194L588.85 651.456C575.066 667.718 546.871 700.242 519.303 716.505C491.108 732.767 463.54 732.767 435.345 732.767C407.777 732.767 379.582 732.767 352.014 716.505C324.446 700.242 296.251 667.718 268.683 692.111C240.488 716.505 212.92 797.815 184.725 822.208C157.157 846.601 128.962 814.077 101.394 805.946C73.8261 797.815 45.6313 814.077 18.0632 789.684C-10.1315 765.291 -37.6997 700.242 -65.8945 675.849C-93.4626 651.456 -121.657 667.718 -135.441 675.849L-149.226 683.98V976.698H-135.441C-121.657 976.698 -93.4626 976.698 -65.8945 976.698C-37.6997 976.698 -10.1315 976.698 18.0632 976.698C45.6313 976.698 73.8261 976.698 101.394 976.698C128.962 976.698 157.157 976.698 184.725 976.698C212.92 976.698 240.488 976.698 268.683 976.698C296.251 976.698 324.446 976.698 352.014 976.698C379.582 976.698 407.777 976.698 435.345 976.698C463.54 976.698 491.108 976.698 519.303 976.698C546.871 976.698 575.066 976.698 588.85 976.698H602.634V635.194Z" fill="#0099FF" fill-opacity="0.3"/>
<path fill-rule="evenodd" clip-rule="evenodd" d="M-784 622.14L-704.25 602.442C-624.5 582.745 -465 543.349 -305.5 405.466C-146 267.582 13.5 31.2106 173 90.3035C332.5 149.396 492 503.954 651.5 602.442C811 700.931 970.5 543.349 1050.25 464.559L1130 385.768V976.698H1050.25C970.5 976.698 811 976.698 651.5 976.698C492 976.698 332.5 976.698 173 976.698C13.5 976.698 -146 976.698 -305.5 976.698C-465 976.698 -624.5 976.698 -704.25 976.698H-784V622.14Z" fill="#FFEBC5" fill-opacity="0.3"/>
<path fill-rule="evenodd" clip-rule="evenodd" d="M-201.478 810.606L-173.346 741.401C-146.185 672.196 -90.8911 533.786 -35.5975 533.786C20.6661 533.786 75.9597 672.196 131.253 630.673C186.547 589.15 241.841 367.694 297.134 298.489C352.428 229.284 408.691 312.33 463.985 367.694C519.279 423.058 574.572 450.74 629.866 519.945C685.159 589.15 740.453 699.878 796.717 658.355C852.01 616.832 907.304 423.058 934.466 326.171L962.598 229.284V976.698H934.466C907.304 976.698 852.01 976.698 796.717 976.698C740.453 976.698 685.159 976.698 629.866 976.698C574.572 976.698 519.279 976.698 463.985 976.698C408.691 976.698 352.428 976.698 297.134 976.698C241.841 976.698 186.547 976.698 131.253 976.698C75.9597 976.698 20.6661 976.698 -35.5975 976.698C-90.8911 976.698 -146.185 976.698 -173.346 976.698H-201.478V810.606Z" fill="#49B6FF" fill-opacity="0.3"/>
</svg>
