<svg width="414" height="815" viewBox="0 0 414 815" fill="none" xmlns="http://www.w3.org/2000/svg">
<path fill-rule="evenodd" clip-rule="evenodd" d="M-784 541.14L-704.25 521.442C-624.5 501.745 -465 462.349 -305.5 324.466C-146 186.582 13.5 -49.7894 173 9.30353C332.5 68.3965 492 422.954 651.5 521.442C811 619.931 970.5 462.349 1050.25 383.559L1130 304.768V895.698H1050.25C970.5 895.698 811 895.698 651.5 895.698C492 895.698 332.5 895.698 173 895.698C13.5 895.698 -146 895.698 -305.5 895.698C-465 895.698 -624.5 895.698 -704.25 895.698H-784V541.14Z" fill="#FFEBC5" fill-opacity="0.3"/>
</svg>
