<svg width="414" height="667" viewBox="0 0 414 667" fill="none" xmlns="http://www.w3.org/2000/svg">
<path fill-rule="evenodd" clip-rule="evenodd" d="M-201.478 581.606L-173.346 512.401C-146.185 443.196 -90.8911 304.786 -35.5975 304.786C20.6661 304.786 75.9597 443.196 131.253 401.673C186.547 360.15 241.841 138.694 297.134 69.4894C352.428 0.284424 408.691 83.3304 463.985 138.694C519.279 194.058 574.572 221.74 629.866 290.945C685.159 360.15 740.453 470.878 796.717 429.355C852.01 387.832 907.304 194.058 934.466 97.1713L962.598 0.284424V747.698H934.466C907.304 747.698 852.01 747.698 796.717 747.698C740.453 747.698 685.159 747.698 629.866 747.698C574.572 747.698 519.279 747.698 463.985 747.698C408.691 747.698 352.428 747.698 297.134 747.698C241.841 747.698 186.547 747.698 131.253 747.698C75.9597 747.698 20.6661 747.698 -35.5975 747.698C-90.8911 747.698 -146.185 747.698 -173.346 747.698H-201.478V581.606Z" fill="#49B6FF" fill-opacity="0.3"/>
</svg>
