<svg width="89" height="84" viewBox="0 0 89 84" fill="none" xmlns="http://www.w3.org/2000/svg">
<g filter="url(#filter0_d_357_975)">
<path fill-rule="evenodd" clip-rule="evenodd" d="M5.20074 25.6726C4.41637 28.8191 4 32.1113 4 35.5006C4 57.8678 22.1325 76 44.5 76C66.8675 76 85 57.8678 85 35.5006C85 27.9242 82.9195 20.8336 79.2986 14.7691C70.3625 5.8991 61.3347 -2.04438 52.5126 0.472245C46.283 1.76341 40.0534 8.16227 33.8713 14.5122L33.8713 14.5123C27.5513 21.0039 21.2811 27.4444 15.1116 28.3244C11.7448 28.7896 8.4061 27.7008 5.20074 25.6726Z" fill="#FFEBC5"/>
</g>
<path d="M71.801 24.2057C71.2417 33.314 63.4185 40.2365 54.3354 39.6769C45.2524 39.1173 38.3351 31.2866 38.8944 22.1784C39.4536 13.0701 47.2769 6.14758 56.3599 6.70717C65.4429 7.26676 72.3602 15.0975 71.801 24.2057Z" stroke="white" stroke-width="5"/>
<rect width="6.33183" height="34.5812" rx="3" transform="matrix(0.805007 0.593265 -0.591983 0.80595 43.0798 32.892)" fill="white"/>
<defs>
<filter id="filter0_d_357_975" x="0" y="0" width="89" height="84" filterUnits="userSpaceOnUse" color-interpolation-filters="sRGB">
<feFlood flood-opacity="0" result="BackgroundImageFix"/>
<feColorMatrix in="SourceAlpha" type="matrix" values="0 0 0 0 0 0 0 0 0 0 0 0 0 0 0 0 0 0 127 0" result="hardAlpha"/>
<feOffset dy="4"/>
<feGaussianBlur stdDeviation="2"/>
<feComposite in2="hardAlpha" operator="out"/>
<feColorMatrix type="matrix" values="0 0 0 0 0 0 0 0 0 0 0 0 0 0 0 0 0 0 0.25 0"/>
<feBlend mode="normal" in2="BackgroundImageFix" result="effect1_dropShadow_357_975"/>
<feBlend mode="normal" in="SourceGraphic" in2="effect1_dropShadow_357_975" result="shape"/>
</filter>
</defs>
</svg>
