<svg width="414" height="291" viewBox="0 0 414 291" fill="none" xmlns="http://www.w3.org/2000/svg">
<path fill-rule="evenodd" clip-rule="evenodd" d="M621 96.8647L589.958 70.3422C558.917 43.8196 496.833 -9.22545 434.75 1.38357C372.667 11.9926 310.583 86.2557 248.5 118.083C186.417 149.91 124.333 139.301 62.25 123.387C0.166687 107.474 -61.9167 86.2557 -92.9583 75.6467L-124 65.0377V256H-92.9583C-61.9167 256 0.166687 256 62.25 256C124.333 256 186.417 256 248.5 256C310.583 256 372.667 256 434.75 256C496.833 256 558.917 256 589.958 256H621V96.8647Z" fill="#FFEBC5" fill-opacity="0.5"/>
<path fill-rule="evenodd" clip-rule="evenodd" d="M-871 52.2885L-803.875 45.6577C-736.75 39.0268 -602.5 25.765 -468.25 12.5033C-334 -0.758452 -199.75 -14.0202 -65.5 32.3959C68.75 78.812 203 184.906 337.25 204.799C471.5 224.691 605.75 158.383 672.875 125.228L740 92.0738V291H672.875C605.75 291 471.5 291 337.25 291C203 291 68.75 291 -65.5 291C-199.75 291 -334 291 -468.25 291C-602.5 291 -736.75 291 -803.875 291H-871V52.2885Z" fill="#49B6FF" fill-opacity="0.5"/>
<path fill-rule="evenodd" clip-rule="evenodd" d="M-62 192H-39.2333C-16.4667 192 29.0667 192 74.6 210.125C120.133 228.25 165.667 264.5 211.2 264.5C256.733 264.5 302.267 228.25 347.8 213.75C393.333 199.25 438.867 206.5 484.4 217.375C529.933 228.25 575.467 242.75 598.233 250L621 257.25V366H598.233C575.467 366 529.933 366 484.4 366C438.867 366 393.333 366 347.8 366C302.267 366 256.733 366 211.2 366C165.667 366 120.133 366 74.6 366C29.0667 366 -16.4667 366 -39.2333 366H-62V192Z" fill="#0099FF" fill-opacity="0.5"/>
</svg>
