<svg width="414" height="127" viewBox="0 0 414 127" fill="none" xmlns="http://www.w3.org/2000/svg">
<path fill-rule="evenodd" clip-rule="evenodd" d="M-95 25.156L-72.4167 21.9659C-49.8333 18.7758 -4.66667 12.3956 40.5 6.01533C85.6667 -0.364891 130.833 -6.74511 176 15.5857C221.167 37.9164 266.333 88.9582 311.5 98.5285C356.667 108.099 401.833 76.1978 424.417 60.2472L447 44.2967V140H424.417C401.833 140 356.667 140 311.5 140C266.333 140 221.167 140 176 140C130.833 140 85.6667 140 40.5 140C-4.66667 140 -49.8333 140 -72.4167 140H-95V25.156Z" fill="#49B6FF" fill-opacity="0.5"/>
</svg>
